<mxfile host="65bd71144e">
    <diagram id="zUdO87sfN6NGNAvaqnXG" name="Page-1">
        <mxGraphModel dx="1099" dy="768" grid="1" gridSize="10" guides="1" tooltips="1" connect="1" arrows="1" fold="1" page="1" pageScale="1" pageWidth="850" pageHeight="1100" math="0" shadow="0">
            <root>
                <mxCell id="0"/>
                <mxCell id="1" parent="0"/>
                <mxCell id="6" value="If User Subscribe The Channel" style="rounded=1;whiteSpace=wrap;html=1;fontSize=17;fontStyle=1" parent="1" vertex="1">
                    <mxGeometry x="692" y="30" width="307" height="60" as="geometry"/>
                </mxCell>
                <mxCell id="9" value="" style="endArrow=classic;html=1;fontSize=17;exitX=0.5;exitY=1;exitDx=0;exitDy=0;" parent="1" source="6" edge="1">
                    <mxGeometry width="50" height="50" relative="1" as="geometry">
                        <mxPoint x="870" y="300" as="sourcePoint"/>
                        <mxPoint x="846" y="220" as="targetPoint"/>
                    </mxGeometry>
                </mxCell>
                <mxCell id="10" value="Subscribe :: User Add Hoga&lt;br style=&quot;font-size: 13px;&quot;&gt;Channel :: Owner Ka Naam ( Chai Aur Code )&lt;br style=&quot;font-size: 13px;&quot;&gt;" style="rhombus;whiteSpace=wrap;html=1;fontSize=13;" parent="1" vertex="1">
                    <mxGeometry x="706.5" y="230" width="278" height="280" as="geometry"/>
                </mxCell>
                <mxCell id="13" value="In The Subscription Model" style="text;html=1;align=center;verticalAlign=middle;resizable=0;points=[];autosize=1;strokeColor=none;fillColor=none;fontSize=17;" parent="1" vertex="1">
                    <mxGeometry x="999" y="320" width="220" height="30" as="geometry"/>
                </mxCell>
                <mxCell id="16" value="" style="edgeStyle=none;html=1;fontSize=13;" parent="1" source="14" target="15" edge="1">
                    <mxGeometry relative="1" as="geometry"/>
                </mxCell>
                <mxCell id="14" value="Jab Kisi Channel Ke Subscriber Chahiye To ::" style="rounded=0;whiteSpace=wrap;html=1;fontSize=14;fontStyle=1" parent="1" vertex="1">
                    <mxGeometry x="505.5" y="550" width="250" height="60" as="geometry"/>
                </mxCell>
                <mxCell id="15" value="Subscription mein se Channel Ko Select Karenge Aur Uss Channel Ko dhodhenege Aur Uss ka Count Le Kange" style="whiteSpace=wrap;html=1;fontSize=14;rounded=0;fontStyle=1" parent="1" vertex="1">
                    <mxGeometry x="900.5" y="550" width="309.5" height="80" as="geometry"/>
                </mxCell>
                <mxCell id="17" value="" style="endArrow=classic;html=1;fontSize=13;exitX=1;exitY=1;exitDx=0;exitDy=0;" parent="1" source="6" edge="1">
                    <mxGeometry width="50" height="50" relative="1" as="geometry">
                        <mxPoint x="950" y="330" as="sourcePoint"/>
                        <mxPoint x="1030" y="170" as="targetPoint"/>
                    </mxGeometry>
                </mxCell>
                <mxCell id="18" value="&lt;font style=&quot;font-size: 16px;&quot;&gt;&lt;b&gt;Jo Document Hai Uss Mein Ek &lt;br&gt;Subscription Add Ho Jayega&amp;nbsp;&lt;br&gt;Jise Mein Channel Ka Naam Aur Subsciber &lt;br style=&quot;&quot;&gt;User Ko Add Kar Denge&lt;/b&gt;&lt;/font&gt;" style="text;html=1;align=center;verticalAlign=middle;resizable=0;points=[];autosize=1;strokeColor=none;fillColor=none;fontSize=13;" parent="1" vertex="1">
                    <mxGeometry x="950" y="170" width="350" height="90" as="geometry"/>
                </mxCell>
                <mxCell id="19" value="Same Ager Kisi User Ko Dekhna Hai Ki Uss Ne Kise Kise Ko Subscripe Kiya Hai To Subscription Mein Se Subscriper Ko Nikal Lenge Aur Uss Mein Usee User KO Find Daal Kar uss Ka count nikal Lenge" style="rounded=0;whiteSpace=wrap;html=1;fontSize=14;fontStyle=1" parent="1" vertex="1">
                    <mxGeometry x="500" y="630" width="260" height="160" as="geometry"/>
                </mxCell>
            </root>
        </mxGraphModel>
    </diagram>
</mxfile>